<svg width="26" height="26" viewBox="0 0 26 26" fill="none" xmlns="http://www.w3.org/2000/svg">
<path d="M10.4192 24.7544C11.7078 24.7544 12.7524 23.7098 12.7524 22.4212C12.7524 21.1326 11.7078 20.088 10.4192 20.088C9.13056 20.088 8.08594 21.1326 8.08594 22.4212C8.08594 23.7098 9.13056 24.7544 10.4192 24.7544Z" stroke="#ECFFEB" stroke-width="1.5" stroke-linecap="round" stroke-linejoin="round"/>
<path d="M20.5842 24.7544C21.8728 24.7544 22.9174 23.7098 22.9174 22.4212C22.9174 21.1326 21.8728 20.088 20.5842 20.088C19.2956 20.088 18.251 21.1326 18.251 22.4212C18.251 23.7098 19.2956 24.7544 20.5842 24.7544Z" stroke="#ECFFEB" stroke-width="1.5" stroke-linecap="round" stroke-linejoin="round"/>
<path d="M5.01044 3.91172L7.76752 12.6411C8.19137 13.9826 8.40261 14.6534 8.81 15.1499C9.16663 15.5888 9.63163 15.9276 10.157 16.1375C10.7537 16.3748 11.456 16.3748 12.8633 16.3748H18.1511C19.5585 16.3748 20.2608 16.3748 20.8561 16.1375C21.3828 15.9276 21.8465 15.5888 22.2045 15.1499C22.6105 14.6534 22.8217 13.9826 23.2469 12.6411L23.808 10.8634L24.1372 9.8127L24.5912 8.37243C24.7532 7.85874 24.7919 7.3141 24.7042 6.78265C24.6166 6.2512 24.4049 5.74788 24.0864 5.31346C23.768 4.87905 23.3517 4.52577 22.8712 4.28224C22.3908 4.0387 21.8597 3.91177 21.3211 3.91172H5.01044ZM5.01044 3.91172L4.99535 3.86097C4.93743 3.66696 4.87339 3.47483 4.80332 3.28487C4.52562 2.58194 4.0547 1.97192 3.44498 1.52531C2.83525 1.0787 2.11161 0.813712 1.35765 0.760973C1.21637 0.75 1.06137 0.75 0.75 0.75" stroke="#ECFFEB" stroke-width="1.5" stroke-linecap="round" stroke-linejoin="round"/>
</svg>
