<svg width="12" height="12" viewBox="0 0 12 12" fill="none" xmlns="http://www.w3.org/2000/svg">
<path d="M4.12378 0.98849C4.89647 -0.329476 6.80178 -0.329475 7.57447 0.988491L8.00248 1.71854C8.28446 2.19951 8.7544 2.54095 9.29897 2.6605L10.1256 2.84196C11.6178 3.16956 12.2066 4.98162 11.1919 6.12376L10.6298 6.75643C10.2595 7.17323 10.08 7.72568 10.1346 8.28054L10.2174 9.12274C10.367 10.6432 8.82558 11.7631 7.42578 11.151L6.65039 10.812C6.13956 10.5886 5.55868 10.5886 5.04785 10.812L4.27246 11.151C2.87266 11.7631 1.33124 10.6432 1.4808 9.12274L1.56364 8.28054C1.61822 7.72568 1.43872 7.17323 1.06843 6.75643L0.506369 6.12376C-0.508317 4.98162 0.0804569 3.16956 1.57269 2.84196L2.39928 2.6605C2.94384 2.54095 3.41379 2.19951 3.69576 1.71854L4.12378 0.98849Z" fill="#FFCE22"/>
</svg>
