<svg width="22" height="16" viewBox="0 0 22 16" fill="none" xmlns="http://www.w3.org/2000/svg">
<path d="M9.73023 1.07319C10.1449 1.02485 10.5685 1 11 1C15.664 1 19.3999 3.90264 21 8C20.6054 9.01041 20.0809 9.94816 19.4447 10.7877M5.51962 2.51944C3.47955 3.76406 1.90111 5.69259 1 8C2.60014 12.0974 6.33603 15 11 15C13.0376 15 14.898 14.446 16.4806 13.4804M8.87877 5.87859C8.33582 6.42149 8 7.17153 8 8C8 9.65685 9.34314 11 11 11C11.8285 11 12.5785 10.6642 13.1214 10.1212" stroke="#ECFFEB" stroke-width="2" stroke-linecap="round" stroke-linejoin="round"/>
</svg>
